<?xml version="1.0" encoding="UTF-8" standalone="no"?>
<!-- Generator: Adobe Illustrator 17.0.0, SVG Export Plug-In . SVG Version: 6.00 Build 0)  -->

<svg
   version="1.1"
   id="Layer_1"
   x="0px"
   y="0px"
   width="246px"
   height="56px"
   viewBox="-30.5 0.052 246 56"
   enable-background="new -30.5 0.052 246 56"
   xml:space="preserve"
   sodipodi:docname="CNH-SOCIAL.svg"
   inkscape:version="1.3.2 (091e20e, 2023-11-25, custom)"
   inkscape:export-filename="CNH-SOCIAL.png"
   inkscape:export-xdpi="249.7561"
   inkscape:export-ydpi="249.7561"
   xmlns:inkscape="http://www.inkscape.org/namespaces/inkscape"
   xmlns:sodipodi="http://sodipodi.sourceforge.net/DTD/sodipodi-0.dtd"
   xmlns:xlink="http://www.w3.org/1999/xlink"
   xmlns="http://www.w3.org/2000/svg"
   xmlns:svg="http://www.w3.org/2000/svg"><defs
   id="defs58" /><sodipodi:namedview
   id="namedview58"
   pagecolor="#ffffff"
   bordercolor="#000000"
   borderopacity="0.25"
   inkscape:showpageshadow="2"
   inkscape:pageopacity="0.0"
   inkscape:pagecheckerboard="0"
   inkscape:deskcolor="#d1d1d1"
   inkscape:zoom="2.1649824"
   inkscape:cx="117.32197"
   inkscape:cy="27.713851"
   inkscape:window-width="1280"
   inkscape:window-height="730"
   inkscape:window-x="-6"
   inkscape:window-y="-6"
   inkscape:window-maximized="1"
   inkscape:current-layer="Layer_1" />
<g
   id="g58"
   transform="translate(17.924135)">
	<g
   id="g48"
   transform="matrix(0.8575729,0,0,0.8575729,-2.9889751,3.995365)">
		<g
   id="g47">
			<path
   d="m 123.18932,52.67 c 0,0.06 -0.049,0.109 -0.109,0.109 v 0 c -0.06,0 -0.109,-0.049 -0.109,-0.109 V 3.434 c 0,-0.06 0.049,-0.109 0.109,-0.109 v 0 c 0.06,0 0.109,0.049 0.109,0.109 z"
   id="path1" />
			<g
   id="g46">
				<path
   fill="#b7292f"
   d="m -0.266,17.131 h -3.982 c -0.629,0 -0.988,0.21 -1.228,0.599 l -4.611,7.935 -4.611,-7.935 c -0.239,-0.389 -0.599,-0.599 -1.228,-0.599 h -3.982 c -0.749,0 -1.078,0.329 -1.078,1.078 v 19.043 c 0,0.749 0.329,1.078 1.078,1.078 h 4.132 c 0.749,0 1.078,-0.329 1.078,-1.078 v -9.731 l 3.833,6.437 c 0.15,0.24 0.359,0.449 0.779,0.449 0.419,0 0.629,-0.21 0.779,-0.449 l 3.833,-6.437 v 9.731 c 0,0.749 0.329,1.078 1.078,1.078 h 4.132 -1.512 c -0.539,0 -0.876,-0.286 -0.897,-0.758 v -0.003 c -0.003,-0.064 0.002,-0.132 0.011,-0.203 0.013,-0.102 0.038,-0.209 0.077,-0.324 L 0.813,26.651 V 18.209 C 0.812,17.46 0.483,17.131 -0.266,17.131"
   id="path2" />
				<path
   fill="#231f20"
   d="m 20.722,11.739 c 0.118,0 0.185,0.059 0.185,0.185 v 2.367 c 0,0.133 -0.081,0.207 -0.163,0.259 -0.348,0.207 -0.895,0.37 -1.687,0.37 -1.598,0 -2.53,-0.829 -2.53,-2.693 0,-1.849 0.939,-2.685 2.596,-2.685 0.666,0 1.198,0.177 1.494,0.355 0.111,0.059 0.155,0.118 0.111,0.229 l -0.185,0.459 c -0.044,0.111 -0.111,0.148 -0.252,0.089 -0.229,-0.096 -0.584,-0.215 -1.036,-0.215 -1.176,0 -1.679,0.518 -1.679,1.768 0,1.265 0.518,1.775 1.598,1.775 0.311,0 0.614,-0.067 0.791,-0.148 v -1.309 h -0.806 c -0.126,0 -0.185,-0.052 -0.185,-0.17 v -0.451 c 0,-0.118 0.059,-0.185 0.185,-0.185 z"
   id="path3" />
				<path
   fill="#231f20"
   d="m 27.675,12.235 c 0,1.797 -0.858,2.685 -2.315,2.685 -1.443,0 -2.301,-0.888 -2.301,-2.685 0,-1.798 0.858,-2.692 2.308,-2.692 1.45,0 2.308,0.895 2.308,2.692 m -1.058,0 c 0,-1.191 -0.414,-1.79 -1.25,-1.79 -0.843,0 -1.257,0.599 -1.257,1.79 0,1.191 0.414,1.783 1.257,1.783 0.836,0 1.25,-0.592 1.25,-1.783"
   id="path4" />
				<path
   fill="#231f20"
   d="m 31.181,14.839 c -0.126,0 -0.185,-0.052 -0.229,-0.178 L 29.31,9.838 C 29.266,9.712 29.325,9.631 29.45,9.631 h 0.718 c 0.126,0 0.185,0.059 0.215,0.163 l 0.888,2.759 0.326,1.221 h 0.015 l 0.318,-1.221 0.888,-2.759 c 0.03,-0.103 0.089,-0.163 0.215,-0.163 h 0.725 c 0.118,0 0.178,0.081 0.133,0.207 l -1.635,4.823 c -0.044,0.126 -0.111,0.178 -0.237,0.178 z"
   id="path5" />
				<path
   fill="#231f20"
   d="m 36.995,12.612 v 1.339 h 2.101 c 0.126,0 0.185,0.052 0.185,0.178 v 0.525 c 0,0.133 -0.059,0.185 -0.185,0.185 h -2.937 c -0.133,0 -0.185,-0.052 -0.185,-0.185 V 9.809 c 0,-0.126 0.052,-0.178 0.178,-0.178 h 2.914 c 0.126,0 0.185,0.052 0.185,0.178 v 0.525 c 0,0.126 -0.059,0.185 -0.185,0.185 h -2.071 v 1.235 h 1.975 c 0.118,0 0.178,0.067 0.178,0.185 v 0.488 c 0,0.118 -0.059,0.185 -0.178,0.185 z"
   id="path6" />
				<path
   fill="#231f20"
   d="m 43.326,9.631 c 1.435,0 2.16,0.511 2.16,1.753 0,0.902 -0.488,1.405 -1.272,1.575 l 1.258,1.65 c 0.081,0.103 0.037,0.229 -0.111,0.229 h -0.703 c -0.133,0 -0.192,-0.059 -0.259,-0.148 L 43.201,13.1 h -0.688 v 1.553 c 0,0.133 -0.059,0.185 -0.185,0.185 H 41.67 c -0.133,0 -0.185,-0.052 -0.185,-0.185 V 9.809 c 0,-0.126 0.052,-0.178 0.185,-0.178 z m -0.022,2.611 c 0.843,0 1.147,-0.274 1.147,-0.858 0,-0.629 -0.326,-0.865 -1.139,-0.865 h -0.799 v 1.723 z"
   id="path7" />
				<path
   fill="#231f20"
   d="m 51.87,14.654 c 0,0.133 -0.059,0.185 -0.178,0.185 h -0.666 c -0.126,0 -0.178,-0.037 -0.229,-0.126 l -2.078,-3.351 v 3.292 c 0,0.133 -0.052,0.185 -0.178,0.185 h -0.636 c -0.133,0 -0.185,-0.052 -0.185,-0.185 V 9.809 c 0,-0.126 0.052,-0.178 0.185,-0.178 h 0.651 c 0.133,0 0.185,0.03 0.237,0.118 l 2.079,3.358 V 9.809 c 0,-0.126 0.052,-0.178 0.178,-0.178 h 0.644 c 0.118,0 0.178,0.052 0.178,0.17 v 4.853 z"
   id="path8" />
				<path
   fill="#231f20"
   d="m 58.712,12.235 c 0,1.797 -0.858,2.685 -2.315,2.685 -1.443,0 -2.301,-0.888 -2.301,-2.685 0,-1.798 0.858,-2.692 2.308,-2.692 1.45,0 2.308,0.895 2.308,2.692 m -1.058,0 c 0,-1.191 -0.414,-1.79 -1.25,-1.79 -0.843,0 -1.257,0.599 -1.257,1.79 0,1.191 0.414,1.783 1.257,1.783 0.836,0 1.25,-0.592 1.25,-1.783"
   id="path9" />
				<path
   fill="#231f20"
   d="m 64.615,14.839 c -0.133,0 -0.185,-0.052 -0.185,-0.185 V 9.809 c 0,-0.126 0.052,-0.178 0.178,-0.178 h 1.428 c 1.672,0 2.582,0.688 2.582,2.552 0,1.96 -0.91,2.655 -2.574,2.655 h -1.429 z m 0.85,-4.291 v 3.373 h 0.54 c 1.006,0 1.561,-0.347 1.561,-1.738 0,-1.295 -0.555,-1.635 -1.568,-1.635 z"
   id="path10" />
				<path
   fill="#231f20"
   d="m 74.941,12.228 c 0,1.775 -0.814,2.685 -2.13,2.685 -1.317,0 -2.13,-0.91 -2.13,-2.678 0,-1.783 0.814,-2.693 2.13,-2.693 1.316,10e-4 2.13,0.91 2.13,2.686 m -1.028,0 c 0,-1.191 -0.362,-1.79 -1.102,-1.79 -0.732,0 -1.095,0.599 -1.095,1.79 0,1.198 0.363,1.798 1.095,1.798 0.739,-10e-4 1.102,-0.6 1.102,-1.798"
   id="path11" />
				<path
   fill="#00a7be"
   d="m 85.487,14.08 c -1.006,0 -1.567,0.643 -1.567,1.699 0,0.528 0.165,0.66 0.528,0.66 h 0.693 c 0.297,0 0.429,-0.082 0.478,-0.346 l 0.016,-0.099 c 0.033,-0.181 0.181,-0.248 0.412,-0.248 0.214,0 0.478,0.05 0.759,0.165 l 0.891,0.346 c 0.346,0.132 0.759,0.231 1.336,0.231 0.956,0 1.517,-0.544 1.517,-1.6 0,-0.528 -0.165,-0.759 -0.528,-0.759 h -0.693 c -0.297,0 -0.429,0.082 -0.478,0.346 l -0.017,0.099 c -0.033,0.165 -0.198,0.247 -0.429,0.247 -0.215,0 -0.495,-0.066 -0.742,-0.165 L 86.772,14.31 c -0.345,-0.13 -0.758,-0.23 -1.285,-0.23"
   id="path12" />
				<path
   fill="#231f20"
   d="m 3.61,43.159 c 0,-0.054 0.029,-0.078 0.078,-0.078 h 2.224 c 0.059,0 0.083,0.024 0.083,0.078 v 0.23 c 0,0.054 -0.024,0.083 -0.083,0.083 h -0.9 v 2.958 c 0,0.059 -0.024,0.083 -0.083,0.083 H 4.676 c -0.054,0 -0.083,-0.024 -0.083,-0.083 v -2.958 h -0.9 c -0.054,0 -0.083,-0.03 -0.083,-0.083 z"
   id="path13" />
				<path
   fill="#231f20"
   d="m 8.543,43.081 c 0.953,0 1.389,0.357 1.389,1.105 0,0.645 -0.372,0.978 -0.992,1.051 l 0.997,1.168 c 0.034,0.049 0.024,0.108 -0.049,0.108 H 9.589 c -0.064,0 -0.088,-0.024 -0.122,-0.064 L 8.48,45.281 H 7.883 v 1.149 c 0,0.059 -0.029,0.083 -0.083,0.083 H 7.546 c -0.059,0 -0.083,-0.024 -0.083,-0.083 v -3.271 c 0,-0.054 0.024,-0.078 0.083,-0.078 z m -0.019,1.813 c 0.728,0 0.983,-0.225 0.983,-0.709 0,-0.508 -0.279,-0.719 -0.973,-0.719 h -0.65 v 1.427 h 0.64 z"
   id="path14" />
				<path
   fill="#231f20"
   d="m 12.797,43.081 c 0.073,0 0.088,0.029 0.108,0.083 l 1.227,3.266 c 0.015,0.044 -0.01,0.083 -0.064,0.083 h -0.284 c -0.054,0 -0.073,-0.024 -0.093,-0.073 l -0.308,-0.816 h -1.501 l -0.308,0.816 c -0.02,0.049 -0.034,0.073 -0.088,0.073 h -0.288 c -0.054,0 -0.078,-0.039 -0.063,-0.083 l 1.227,-3.266 c 0.019,-0.054 0.034,-0.083 0.107,-0.083 z m 0.455,2.16 -0.611,-1.74 h -0.01 l -0.616,1.74 z"
   id="path15" />
				<path
   fill="#231f20"
   d="m 15.668,46.513 c -0.059,0 -0.083,-0.024 -0.083,-0.083 v -3.271 c 0,-0.054 0.024,-0.078 0.083,-0.078 h 1.217 c 0.87,0 1.261,0.293 1.261,0.885 0,0.469 -0.239,0.674 -0.499,0.738 0.337,0.073 0.621,0.308 0.621,0.836 0,0.689 -0.435,0.973 -1.364,0.973 z M 16.9,44.552 c 0.621,0 0.831,-0.161 0.831,-0.557 0,-0.381 -0.23,-0.533 -0.856,-0.533 H 16 v 1.09 z m -0.025,1.574 c 0.723,0 0.978,-0.147 0.978,-0.611 0,-0.421 -0.22,-0.592 -0.934,-0.592 H 16 v 1.203 z"
   id="path16" />
				<path
   fill="#231f20"
   d="m 21.232,43.081 c 0.073,0 0.088,0.029 0.108,0.083 l 1.227,3.266 c 0.015,0.044 -0.01,0.083 -0.064,0.083 h -0.284 c -0.054,0 -0.073,-0.024 -0.093,-0.073 l -0.308,-0.816 h -1.501 l -0.308,0.816 c -0.02,0.049 -0.034,0.073 -0.088,0.073 h -0.288 c -0.054,0 -0.078,-0.039 -0.063,-0.083 l 1.227,-3.266 c 0.019,-0.054 0.034,-0.083 0.107,-0.083 z m 0.454,2.16 -0.611,-1.74 h -0.01 l -0.616,1.74 z"
   id="path17" />
				<path
   fill="#231f20"
   d="m 24.439,46.121 h 1.481 c 0.054,0 0.083,0.024 0.083,0.073 v 0.235 c 0,0.059 -0.029,0.083 -0.083,0.083 h -1.818 c -0.059,0 -0.083,-0.024 -0.083,-0.083 v -3.27 c 0,-0.054 0.024,-0.078 0.083,-0.078 h 0.254 c 0.054,0 0.083,0.024 0.083,0.078 z"
   id="path18" />
				<path
   fill="#231f20"
   d="M 29.705,44.953 H 27.95 v 1.476 c 0,0.059 -0.029,0.083 -0.083,0.083 h -0.254 c -0.059,0 -0.083,-0.024 -0.083,-0.083 v -3.271 c 0,-0.054 0.024,-0.078 0.083,-0.078 h 0.254 c 0.054,0 0.083,0.024 0.083,0.078 v 1.403 h 1.755 v -1.403 c 0,-0.054 0.029,-0.078 0.083,-0.078 h 0.259 c 0.054,0 0.078,0.024 0.078,0.078 v 3.271 c 0,0.059 -0.024,0.083 -0.078,0.083 h -0.259 c -0.054,0 -0.083,-0.024 -0.083,-0.083 z"
   id="path19" />
				<path
   fill="#231f20"
   d="m 33.24,43.081 c 0.073,0 0.088,0.029 0.108,0.083 l 1.227,3.266 c 0.015,0.044 -0.01,0.083 -0.064,0.083 h -0.284 c -0.054,0 -0.073,-0.024 -0.093,-0.073 l -0.308,-0.816 h -1.501 l -0.308,0.816 c -0.02,0.049 -0.034,0.073 -0.088,0.073 h -0.288 c -0.054,0 -0.078,-0.039 -0.063,-0.083 l 1.227,-3.266 c 0.019,-0.054 0.034,-0.083 0.107,-0.083 z m 0.455,2.16 -0.611,-1.74 h -0.01 l -0.616,1.74 z"
   id="path20" />
				<path
   fill="#231f20"
   d="m 38.629,46.429 c 0,0.059 -0.029,0.083 -0.083,0.083 h -0.269 c -0.059,0 -0.083,-0.019 -0.112,-0.064 l -1.726,-2.669 v 2.65 c 0,0.059 -0.024,0.083 -0.078,0.083 h -0.249 c -0.059,0 -0.083,-0.024 -0.083,-0.083 v -3.271 c 0,-0.054 0.024,-0.078 0.083,-0.078 h 0.264 c 0.059,0 0.088,0.015 0.117,0.059 l 1.726,2.674 v -2.655 c 0,-0.054 0.024,-0.078 0.078,-0.078 h 0.249 c 0.054,0 0.083,0.024 0.083,0.073 z"
   id="path21" />
				<path
   fill="#231f20"
   d="m 40.463,46.513 c -0.059,0 -0.083,-0.024 -0.083,-0.083 v -3.271 c 0,-0.054 0.024,-0.078 0.078,-0.078 h 0.841 c 1.085,0 1.716,0.42 1.716,1.657 0,1.354 -0.631,1.775 -1.706,1.775 z M 40.8,43.472 v 2.65 h 0.504 c 0.807,0 1.281,-0.274 1.281,-1.383 0,-0.997 -0.479,-1.266 -1.291,-1.266 H 40.8 Z"
   id="path22" />
				<path
   fill="#231f20"
   d="m 47.391,44.797 c 0,1.134 -0.523,1.765 -1.481,1.765 -0.948,0 -1.472,-0.631 -1.472,-1.765 0,-1.134 0.523,-1.77 1.476,-1.77 0.954,0 1.477,0.635 1.477,1.77 m -0.431,0 c 0,-0.89 -0.342,-1.389 -1.046,-1.389 -0.704,0 -1.046,0.499 -1.046,1.389 0,0.89 0.342,1.383 1.046,1.383 0.704,0 1.046,-0.494 1.046,-1.383"
   id="path23" />
				<path
   fill="#231f20"
   d="m 51.41,46.513 c -0.059,0 -0.083,-0.029 -0.083,-0.083 v -3.266 c 0,-0.054 0.024,-0.083 0.078,-0.083 h 0.948 c 0.978,0 1.432,0.342 1.432,1.193 0,0.851 -0.455,1.188 -1.432,1.188 h -0.606 v 0.968 c 0,0.054 -0.029,0.083 -0.083,0.083 z m 0.944,-1.438 c 0.699,0 1.002,-0.21 1.002,-0.802 0,-0.592 -0.303,-0.807 -1.002,-0.807 h -0.606 v 1.608 h 0.606 z"
   id="path24" />
				<path
   fill="#231f20"
   d="m 56.535,43.081 c 0.073,0 0.088,0.029 0.108,0.083 l 1.227,3.266 c 0.015,0.044 -0.01,0.083 -0.064,0.083 h -0.284 c -0.054,0 -0.073,-0.024 -0.093,-0.073 L 57.121,45.624 H 55.62 l -0.308,0.816 c -0.019,0.049 -0.034,0.073 -0.088,0.073 h -0.288 c -0.054,0 -0.078,-0.039 -0.063,-0.083 L 56.1,43.164 c 0.019,-0.054 0.034,-0.083 0.107,-0.083 z m 0.454,2.16 -0.611,-1.74 h -0.01 l -0.616,1.74 z"
   id="path25" />
				<path
   fill="#231f20"
   d="m 60.402,43.081 c 0.953,0 1.389,0.357 1.389,1.105 0,0.645 -0.372,0.978 -0.992,1.051 l 0.997,1.168 c 0.034,0.049 0.024,0.108 -0.049,0.108 h -0.298 c -0.064,0 -0.088,-0.024 -0.122,-0.064 L 60.34,45.281 h -0.597 v 1.149 c 0,0.059 -0.029,0.083 -0.083,0.083 h -0.254 c -0.059,0 -0.083,-0.024 -0.083,-0.083 v -3.271 c 0,-0.054 0.024,-0.078 0.083,-0.078 z m -0.019,1.813 c 0.728,0 0.983,-0.225 0.983,-0.709 0,-0.508 -0.279,-0.719 -0.973,-0.719 h -0.65 v 1.427 h 0.64 z"
   id="path26" />
				<path
   fill="#231f20"
   d="m 64.656,43.081 c 0.073,0 0.088,0.029 0.108,0.083 l 1.227,3.266 c 0.015,0.044 -0.01,0.083 -0.064,0.083 h -0.284 c -0.054,0 -0.073,-0.024 -0.093,-0.073 l -0.308,-0.816 h -1.501 l -0.308,0.816 c -0.019,0.049 -0.034,0.073 -0.088,0.073 h -0.288 c -0.054,0 -0.078,-0.039 -0.063,-0.083 l 1.227,-3.266 c 0.019,-0.054 0.034,-0.083 0.107,-0.083 z m 0.455,2.16 -0.611,-1.74 h -0.01 l -0.616,1.74 z"
   id="path27" />
				<path
   fill="#231f20"
   d="m 69.507,43.159 c 0,-0.054 0.029,-0.078 0.078,-0.078 h 2.225 c 0.059,0 0.083,0.024 0.083,0.078 v 0.23 c 0,0.054 -0.024,0.083 -0.083,0.083 h -0.9 v 2.958 c 0,0.059 -0.024,0.083 -0.083,0.083 h -0.254 c -0.054,0 -0.083,-0.024 -0.083,-0.083 v -2.958 h -0.9 c -0.054,0 -0.083,-0.03 -0.083,-0.083 z"
   id="path28" />
				<path
   fill="#231f20"
   d="m 75.995,44.797 c 0,1.134 -0.523,1.765 -1.481,1.765 -0.948,0 -1.472,-0.631 -1.472,-1.765 0,-1.134 0.523,-1.77 1.476,-1.77 0.953,0 1.477,0.635 1.477,1.77 m -0.431,0 c 0,-0.89 -0.342,-1.389 -1.046,-1.389 -0.704,0 -1.046,0.499 -1.046,1.389 0,0.89 0.342,1.383 1.046,1.383 0.704,0 1.046,-0.494 1.046,-1.383"
   id="path29" />
				<path
   fill="#231f20"
   d="m 77.667,46.513 c -0.059,0 -0.083,-0.024 -0.083,-0.083 v -3.271 c 0,-0.054 0.024,-0.078 0.078,-0.078 h 0.841 c 1.085,0 1.716,0.42 1.716,1.657 0,1.354 -0.631,1.775 -1.706,1.775 z m 0.338,-3.041 v 2.65 h 0.504 c 0.807,0 1.281,-0.274 1.281,-1.383 0,-0.997 -0.479,-1.266 -1.291,-1.266 h -0.494 z"
   id="path30" />
				<path
   fill="#231f20"
   d="m 84.595,44.797 c 0,1.134 -0.523,1.765 -1.481,1.765 -0.948,0 -1.472,-0.631 -1.472,-1.765 0,-1.134 0.523,-1.77 1.476,-1.77 0.954,0 1.477,0.635 1.477,1.77 m -0.43,0 c 0,-0.89 -0.342,-1.389 -1.046,-1.389 -0.704,0 -1.046,0.499 -1.046,1.389 0,0.89 0.342,1.383 1.046,1.383 0.704,0 1.046,-0.494 1.046,-1.383"
   id="path31" />
				<path
   fill="#231f20"
   d="m 87.001,46.552 c -0.396,0 -0.777,-0.068 -0.963,-0.156 -0.054,-0.024 -0.078,-0.044 -0.064,-0.093 l 0.078,-0.22 c 0.01,-0.044 0.034,-0.078 0.098,-0.049 0.181,0.073 0.484,0.142 0.836,0.142 0.528,0 0.87,-0.186 0.87,-0.548 0,-0.391 -0.391,-0.533 -0.831,-0.709 -0.514,-0.205 -0.973,-0.391 -0.973,-1.002 0,-0.547 0.357,-0.89 1.178,-0.89 0.376,0 0.66,0.063 0.846,0.142 0.049,0.019 0.073,0.044 0.059,0.093 l -0.078,0.215 c -0.015,0.044 -0.034,0.068 -0.103,0.044 -0.171,-0.069 -0.381,-0.113 -0.694,-0.113 -0.562,0 -0.787,0.176 -0.787,0.508 0,0.381 0.357,0.484 0.767,0.66 0.528,0.225 1.036,0.425 1.036,1.061 0.001,0.607 -0.497,0.915 -1.275,0.915"
   id="path32" />
				<g
   id="g32">
					<defs
   id="defs32">
						<path
   id="SVGID_1_"
   d="m 99.29,27.581 c 0,-3.922 1.078,-5.39 3.144,-5.39 2.066,0 3.144,1.467 3.144,5.39 0,3.923 -1.078,5.39 -3.144,5.39 -2.066,-10e-4 -3.144,-1.468 -3.144,-5.39 m -6.23,-3.856 0.301,0.922 4.054,12.396 c 0.062,0.179 0.091,0.344 0.089,0.492 1.401,0.684 3.063,1.005 4.929,1.005 5.898,0 9.761,-3.204 9.761,-10.959 0,-7.755 -3.862,-10.959 -9.761,-10.959 -4.803,0 -8.257,2.125 -9.373,7.103" />
					</defs>
					<clipPath
   id="SVGID_2_">
						<use
   xlink:href="#SVGID_1_"
   overflow="visible"
   id="use32" />
					</clipPath>
					<rect
   x="93.059998"
   y="16.622"
   clip-path="url(#SVGID_2_)"
   fill="#f7901e"
   width="19.135"
   height="21.917"
   id="rect32" />
				</g>
				<path
   fill="#45b649"
   d="M 79.661,17.131 H 75.29 c -0.749,0 -1.078,0.329 -1.078,1.078 v 6.497 h -4.791 v -6.497 c 0,-0.749 -0.329,-1.078 -1.078,-1.078 h -4.372 c -0.048,0 -0.094,0.001 -0.138,0.004 0.651,0.04 0.94,0.373 0.94,1.074 v 19.043 c 0,0.701 -0.289,1.034 -0.94,1.074 0.044,0.003 0.09,0.004 0.138,0.004 h 4.372 c 0.749,0 1.078,-0.329 1.078,-1.078 v -6.797 h 4.791 v 6.797 c 0,0.749 0.329,1.078 1.078,1.078 h 4.371 -1.798 c -0.718,0 -1.078,-0.509 -0.808,-1.287 l 3.684,-11.267 v -7.567 c 0,-0.749 -0.329,-1.078 -1.078,-1.078"
   id="path33" />
				<path
   fill="#204181"
   d="m 42.796,17.131 h -5.39 c -0.779,0 -1.078,0.329 -1.287,0.958 l -5.087,15.557 1.341,2.212 0.001,0.001 0.681,1.123 c 0.449,0.719 0.15,1.347 -0.599,1.347 h -1.726 4.195 0.356 10.139 4.053 -1.706 c -0.749,0 -1.078,-0.329 -1.078,-1.078 V 26.056 L 44.083,18.089 C 43.874,17.46 43.575,17.131 42.796,17.131"
   id="path34" />
				<path
   fill="#ffffff"
   d="m 39.847,23.77 -3.26,9.751 c -0.094,0.28 0.228,0.516 0.467,0.342 l 8.426,-6.136 c 0.238,-0.173 0.115,-0.549 -0.179,-0.549 H 34.903 c -0.293,0 -0.416,0.374 -0.18,0.548 l 8.342,6.141 c 0.237,0.175 0.559,-0.056 0.469,-0.337 l -3.11,-9.756 C 40.335,23.494 39.94,23.491 39.847,23.77"
   id="path35" />
				<path
   fill="#006395"
   d="m 21.976,26.952 v -0.298 -1.4 -2.734 -0.298 h 2.156 c 1.886,0 2.635,0.718 2.635,2.216 0,0.052 -0.003,0.099 -0.004,0.149 10e-4,0.05 0.004,0.097 0.004,0.149 0,0.533 -0.095,0.967 -0.303,1.305 l -10e-4,-0.002 c -0.257,0.42 -0.686,0.693 -1.322,0.823 l -0.01,0.002 c -0.114,0.023 -0.235,0.041 -0.362,0.055 l -0.012,0.001 c -0.055,0.006 -0.111,0.011 -0.169,0.015 -0.017,0.001 -0.035,0.003 -0.052,0.004 -0.047,0.003 -0.095,0.005 -0.145,0.007 -0.019,10e-4 -0.037,0.002 -0.056,0.002 -0.066,0.002 -0.133,0.003 -0.202,0.003 h -2.157 z m 2.245,-9.821 h -0.718 l -0.001,0.002 h -1.527 v -0.002 h -5.389 c -0.749,0 -1.078,0.329 -1.078,1.078 v 11.904 l 2.266,6.929 c 0.269,0.778 -0.09,1.287 -0.808,1.287 h -0.38 4.311 c 0.749,0 1.078,-0.329 1.078,-1.078 v -5.208 -0.002 h 1.527 l 0.001,0.002 v 0 l 3.083,5.418 c 0.33,0.569 0.749,0.868 1.497,0.868 h 2.646 c -0.539,0 -0.876,-0.286 -0.897,-0.758 -0.007,-0.157 0.021,-0.335 0.088,-0.53 l 1.111,-3.396 -1.499,-2.473 c 0,0 3.02,-1.253 3.581,-4.645 0.098,-0.592 0.169,-1.235 0.176,-1.94 -0.007,-0.704 -0.073,-1.349 -0.176,-1.94 -0.588,-3.35 -3.581,-4.646 -3.581,-4.646 -1.412,-0.61 -3.197,-0.87 -5.311,-0.87"
   id="path36" />
				<path
   fill="#293469"
   d="m 31.032,33.646 -1.111,3.396 c -0.067,0.195 -0.095,0.372 -0.088,0.53 0.021,0.471 0.358,0.758 0.897,0.758 h 1.726 c 0.749,0 1.048,-0.629 0.599,-1.347 L 32.374,35.86 32.373,35.859 Z"
   id="path37" />
				<path
   fill="#febd11"
   d="m 89.93,17.131 h -5.39 c -0.779,0 -1.078,0.329 -1.287,0.958 l -2.514,7.687 v 11.476 c 0,0.749 -0.329,1.078 -1.078,1.078 h 2.753 c 0.749,0 1.138,-0.329 1.318,-0.988 l 3.473,-13.803 h 0.085 0.005 l 1.718,6.886 1.725,6.917 c 0.034,0.124 0.075,0.236 0.124,0.336 0.214,0.435 0.585,0.652 1.193,0.652 h 4.551 c 0.539,0 0.876,-0.286 0.897,-0.758 0,-0.012 0.001,-0.025 0.001,-0.037 -3.026,-1.478 -4.832,-4.653 -4.832,-9.954 0,-1.439 0.133,-2.722 0.387,-3.856 L 91.216,18.089 C 91.212,18.077 91.208,18.067 91.204,18.056 91.169,17.954 91.131,17.86 91.089,17.775 L 91.085,17.767 C 90.878,17.348 90.562,17.131 89.93,17.131"
   id="path38" />
				<path
   fill="#f47820"
   d="m 93.06,23.725 c -0.254,1.134 -0.387,2.417 -0.387,3.856 0,5.301 1.806,8.476 4.832,9.954 0.001,-0.148 -0.027,-0.313 -0.089,-0.492 L 93.362,24.647 Z"
   id="path39" />
				<path
   fill="#5b9345"
   d="m 80.739,25.776 -3.684,11.267 c -0.27,0.778 0.09,1.287 0.808,1.287 h 1.798 c 0.748,0 1.078,-0.329 1.078,-1.078 z"
   id="path40" />
				<path
   fill="#009c47"
   d="m 63.696,17.131 h -4.132 c -0.748,0 -1.078,0.329 -1.078,1.078 v 9.162 l -5.27,-9.581 c -0.269,-0.479 -0.539,-0.659 -1.288,-0.659 h -4.162 c -0.749,0 -1.078,0.329 -1.078,1.078 v 7.848 l 3.593,10.986 c 0.269,0.778 -0.09,1.287 -0.808,1.287 h 2.426 c 0.749,0 1.078,-0.329 1.078,-1.078 V 28.09 l 5.27,9.581 c 0.269,0.479 0.539,0.659 1.288,0.659 h 4.162 c 0.048,0 0.094,-10e-4 0.138,-0.004 -0.651,-0.04 -0.94,-0.373 -0.94,-1.074 V 18.209 c 0,-0.701 0.289,-1.035 0.94,-1.074 -0.045,-0.003 -0.091,-0.004 -0.139,-0.004"
   id="path41" />
				<path
   fill="#009849"
   d="m 63.834,17.135 c -0.651,0.04 -0.94,0.373 -0.94,1.074 v 19.043 c 0,0.701 0.289,1.034 0.94,1.074 0.651,-0.04 0.94,-0.373 0.94,-1.074 V 18.209 c 0,-0.701 -0.289,-1.034 -0.94,-1.074"
   id="path42" />
				<path
   fill="#273b32"
   d="m 46.689,26.057 v 11.195 c 0,0.749 0.329,1.078 1.078,1.078 h 1.706 c 0.719,0 1.078,-0.509 0.808,-1.287 z"
   id="path43" />
				<path
   fill="#d91a21"
   d="m 10.289,17.131 h -5.39 c -0.632,0 -0.949,0.217 -1.158,0.636 l -0.003,0.008 c -0.042,0.085 -0.08,0.179 -0.115,0.281 -0.004,0.011 -0.008,0.022 -0.012,0.033 l -2.144,6.557 -0.655,2.005 v 10.601 c 0,0.749 -0.329,1.078 -1.078,1.078 h 3.039 c 0.608,0 0.979,-0.217 1.193,-0.652 L 3.971,37.667 C 4.018,37.569 4.058,37.461 4.09,37.342 L 7.533,23.539 h 0.005 v 0 h 0.084 l 3.473,13.803 c 0.18,0.659 0.569,0.988 1.317,0.988 h 4.172 c -0.749,0 -1.078,-0.329 -1.078,-1.078 V 30.966 30.113 L 11.574,18.089 C 11.367,17.46 11.067,17.131 10.289,17.131"
   id="path44" />
				<path
   fill="#a82529"
   d="m 0.812,26.651 -3.398,10.391 c -0.04,0.114 -0.064,0.222 -0.077,0.324 -0.009,0.071 -0.014,0.139 -0.011,0.203 v 0.003 c 0.021,0.472 0.358,0.758 0.897,0.758 h 1.512 c 0.749,0 1.078,-0.329 1.078,-1.078 V 26.651 Z"
   id="path45" />
				<path
   fill="#2f2c30"
   d="m 15.508,30.113 v 0.853 6.286 c 0,0.749 0.329,1.078 1.078,1.078 h 0.38 c 0.719,0 1.078,-0.509 0.808,-1.287 z"
   id="path46" />
			</g>
		</g>
	</g>
	
<path
   id="path883"
   d="m 119.72434,27.112995 c -1.78652,0 -3.03012,-0.413969 -3.79529,-1.275837 -0.76516,-0.860173 -1.14689,-2.327725 -1.14689,-4.399266 0,-2.073235 0.34951,-3.540788 1.08412,-4.400959 0.73293,-0.829634 1.97653,-1.275838 3.73081,-1.275838 1.08413,0 2.10377,0.191715 3.06065,0.573447 0.41397,0.191716 0.76517,0.223952 1.02135,0.159481 0.2545,-0.06277 0.44621,-0.286724 0.60569,-0.668457 l 1.30637,-2.838399 c 0.12724,-0.383431 0.15948,-0.670155 0.0967,-0.861868 -0.0967,-0.190019 -0.31896,-0.41397 -0.67016,-0.668459 -1.72203,-1.116358 -3.92251,-1.6898061 -6.60144,-1.6898061 -3.3796,0 -6.02629,0.9551821 -7.87557,2.8367021 -1.88153,1.913757 -2.80617,4.847165 -2.80617,8.834156 0,3.985297 0.95687,6.918705 2.87063,8.832461 1.91206,1.912059 4.55874,2.838399 7.97059,2.838399 2.74339,0 4.97441,-0.575144 6.69646,-1.722041 0.35119,-0.22395 0.57514,-0.447901 0.67015,-0.637918 0.0644,-0.191716 0.0322,-0.510675 -0.095,-0.894105 l -1.34031,-2.868937 c -0.19171,-0.351196 -0.38173,-0.573449 -0.63792,-0.637919 -0.25448,-0.06447 -0.57344,-0.03224 -0.98741,0.127244 -1.05359,0.446203 -2.10548,0.637919 -3.15736,0.637919 z m 28.09345,-15.815634 c 0,-0.765163 -0.38343,-1.148594 -1.1486,-1.148594 h -4.40095 c -0.76517,0 -1.14691,0.383431 -1.14691,1.148594 v 9.757103 L 135.509,10.851156 c -0.25618,-0.446203 -0.73462,-0.702389 -1.37254,-0.702389 h -4.43149 c -0.76517,0 -1.1486,0.383431 -1.1486,1.148594 V 31.57673 c 0,0.765163 0.38343,1.148592 1.1486,1.148592 h 4.40095 c 0.76517,0 1.1469,-0.383429 1.1469,-1.148592 v -9.757103 l 5.61233,10.205003 c 0.25618,0.476743 0.70239,0.700692 1.37085,0.700692 h 4.43319 c 0.76517,0 1.1486,-0.383429 1.1486,-1.148592 z m 15.369,20.279369 c 0,0.765163 0.38173,1.148592 1.1469,1.148592 h 4.65715 c 0.76516,0 1.14689,-0.383429 1.14689,-1.148592 V 11.297361 c 0,-0.765163 -0.38173,-1.148594 -1.14689,-1.148594 h -4.65715 c -0.76517,0 -1.1469,0.383431 -1.1469,1.148594 v 6.918703 h -5.10165 v -6.918703 c 0,-0.765163 -0.38343,-1.148594 -1.1486,-1.148594 h -4.65545 c -0.76516,0 -1.14859,0.383431 -1.14859,1.148594 V 31.57673 c 0,0.765163 0.38343,1.148592 1.14859,1.148592 h 4.65545 c 0.76517,0 1.1486,-0.383429 1.1486,-1.148592 v -7.237664 h 5.10165 z m 0,0"
   style="fill:#f68222;fill-opacity:1;fill-rule:nonzero;stroke:none;stroke-width:0.144775"
   aria-label="CNH" /><path
   id="path884"
   d="m 122.76477,41.58196 c 0,-0.400397 -0.0763,-0.770253 -0.21547,-1.092605 -0.15438,-0.30878 -0.36985,-0.585325 -0.67694,-0.816062 -0.30708,-0.215466 -0.58532,-0.400396 -0.86187,-0.554785 -0.27654,-0.137425 -0.63113,-0.291814 -1.07733,-0.476743 -0.49202,-0.184928 -0.83134,-0.339318 -1.0468,-0.492012 -0.21546,-0.154389 -0.30708,-0.308779 -0.30708,-0.492011 0,-0.400397 0.43093,-0.615863 1.30807,-0.615863 0.69221,0 1.35388,0.106885 1.96975,0.322353 0.32235,0.12385 0.58531,0.01527 0.76855,-0.322353 l 0.75498,-1.355578 c 0.15439,-0.291813 0.10689,-0.52255 -0.16966,-0.692209 -0.30708,-0.184929 -0.76856,-0.337622 -1.36915,-0.492012 -0.61586,-0.139121 -1.26226,-0.215467 -1.95447,-0.215467 -1.43192,0 -2.57033,0.307082 -3.43221,0.922946 -0.86186,0.615863 -1.27753,1.569347 -1.27753,2.846883 0,0.446202 0.0763,0.846599 0.23073,1.185917 0.1544,0.337623 0.36987,0.631132 0.6464,0.861869 0.27655,0.246007 0.57007,0.430934 0.86188,0.583628 0.29181,0.15439 0.64639,0.30878 1.04679,0.4479 0.92295,0.337621 1.38443,0.646402 1.38443,0.922946 0,0.476744 -0.56837,0.707481 -1.67624,0.707481 -0.70917,0 -1.40138,-0.154391 -2.10886,-0.461475 -0.30879,-0.123851 -0.57006,-0.01527 -0.75499,0.322352 l -0.79909,1.431924 c -0.16967,0.307085 -0.10859,0.539516 0.16796,0.69221 0.8941,0.524248 2.1394,0.770253 3.77152,0.770253 1.38442,0 2.5398,-0.339318 3.44748,-1.016259 0.90768,-0.67694 1.36915,-1.647391 1.36915,-2.923228 z m 7.12527,-7.310617 c -3.23201,0 -5.18649,1.878129 -5.84815,5.602148 -0.10859,0.553089 -0.1544,1.077337 -0.1544,1.584617 0,1.38442 0.36986,2.40068 1.14011,3.077619 0.76856,0.67694 1.83062,1.000989 3.18451,1.000989 3.232,0 5.18647,-1.862858 5.86341,-5.602148 0.0933,-0.537819 0.15439,-1.062066 0.15439,-1.569347 0,-1.386116 -0.38512,-2.400679 -1.15368,-3.077619 -0.77025,-0.678637 -1.83232,-1.016259 -3.18619,-1.016259 z m -1.32334,8.403222 c -0.83133,0 -1.247,-0.508978 -1.247,-1.555775 0,-0.291814 0.0306,-0.69221 0.12385,-1.21476 0.16796,-0.98572 0.43093,-1.693199 0.76856,-2.124134 0.33931,-0.430935 0.78551,-0.646401 1.3386,-0.646401 0.83134,0 1.247,0.524247 1.247,1.554079 0,0.30878 -0.0458,0.709175 -0.12215,1.216456 -0.18493,0.984024 -0.44621,1.693199 -0.78552,2.124134 -0.33933,0.430934 -0.78552,0.646401 -1.32334,0.646401 z m 11.86384,-0.03053 c -0.70748,0 -1.21476,-0.123851 -1.53882,-0.400395 -0.32235,-0.262973 -0.47674,-0.709177 -0.47674,-1.340309 0,-0.215468 0.0305,-0.537819 0.10859,-0.999293 0.16796,-1.00099 0.46147,-1.708468 0.89241,-2.124134 0.43093,-0.400396 1.06206,-0.615862 1.90866,-0.615862 0.53782,0 1.01456,0.09331 1.43023,0.278241 0.18493,0.09162 0.35459,0.122155 0.47674,0.09162 0.12385,-0.03053 0.23074,-0.154391 0.35459,-0.339318 l 0.87714,-1.369152 c 0.0916,-0.184927 0.13911,-0.322351 0.10858,-0.415663 -0.0322,-0.09162 -0.10858,-0.200199 -0.26297,-0.322353 -0.30708,-0.215468 -0.75329,-0.415667 -1.30807,-0.570056 -0.56836,-0.15439 -1.18423,-0.246006 -1.86117,-0.246006 -3.35585,0 -5.35614,1.878128 -6.01781,5.632687 -0.0916,0.522551 -0.13912,1.016259 -0.13912,1.462463 0,1.384419 0.4004,2.431217 1.21646,3.123426 0.81606,0.707479 1.92393,1.046798 3.33889,1.046798 1.20119,0 2.26326,-0.276545 3.20147,-0.831331 0.18493,-0.106885 0.32405,-0.215467 0.38512,-0.322352 0.0611,-0.108582 0.0611,-0.247702 0.0152,-0.415666 l -0.40039,-1.386115 c -0.0611,-0.16966 -0.13913,-0.276544 -0.24601,-0.307084 -0.10858,-0.03053 -0.27655,-0.01528 -0.49202,0.06108 -0.55478,0.215467 -1.07734,0.30878 -1.57104,0.30878 z m 3.94076,2.152975 c -0.078,0.369858 0.0763,0.554785 0.47675,0.554785 h 2.24628 c 0.33932,0 0.55479,-0.184927 0.63113,-0.554785 l 1.72375,-9.787641 c 0.0611,-0.368161 -0.10859,-0.553089 -0.49202,-0.553089 h -2.24799 c -0.35289,0 -0.55309,0.184928 -0.61417,0.553089 z m 9.4182,-3.876713 1.50827,-3.170932 h 0.0458 l 0.30708,3.170932 z m 0.62945,-6.464017 c -0.32235,0 -0.5531,0.16966 -0.70749,0.492011 l -4.90823,9.741833 c -0.10859,0.200199 -0.12385,0.354589 -0.0627,0.476744 0.0627,0.12385 0.20019,0.184927 0.38512,0.184927 h 2.38541 c 0.33932,0 0.58532,-0.169659 0.73802,-0.50728 l 0.53952,-1.185918 h 2.94019 l 0.12215,1.185918 c 0.0305,0.337621 0.23074,0.50728 0.61587,0.50728 h 2.29379 c 0.18323,0 0.32236,-0.04581 0.41397,-0.169659 0.0933,-0.122155 0.12385,-0.276544 0.0933,-0.492012 l -1.4625,-9.741834 c -0.0611,-0.322351 -0.27654,-0.492011 -0.61586,-0.492011 z m 10.91248,0.553089 c 0.0611,-0.368161 -0.10858,-0.553089 -0.49372,-0.553089 h -2.24629 c -0.35459,0 -0.55308,0.184928 -0.61585,0.553089 l -1.72374,9.787641 c -0.0763,0.369858 0.0781,0.554785 0.47674,0.554785 h 6.18747 c 0.33932,0 0.55479,-0.184927 0.63114,-0.554785 l 0.32235,-1.845892 c 0.0627,-0.369857 -0.10689,-0.554786 -0.49202,-0.554786 h -3.35416 z m 0,0"
   style="fill:#204181;fill-opacity:1;fill-rule:nonzero;stroke:none;stroke-width:0.144775"
   aria-label="SOCIAL" /></g>
</svg>
